{
  "accessors": [
    {
      "bufferView": 2,
      "componentType": 5126,
      "count": 2394,
      "max": [
        1.098176121711731,
        1.7325834035873413,
        0.15756694972515106
      ],
      "min": [
        -1.1295429468154907,
        -0.461029052734375,
        -0.1325329691171646
      ],
      "type": "VEC3"
    },
    {
      "bufferView": 2,
      "byteOffset": 28728,
      "componentType": 5126,
      "count": 2394,
      "max": [
        0.9999934434890747,
        0.9999982118606567,
        0.999762773513794
      ],
      "min": [
        -0.9999934434890747,
        -0.9999982118606567,
        -0.9997520446777344
      ],
      "type": "VEC3"
    },
    {
      "bufferView": 1,
      "componentType": 5126,
      "count": 2394,
      "max": [
        4.987778663635254,
        0.7091001868247986
      ],
      "min": [
        -3.780331611633301,
        0.2912258207798004
      ],
      "type": "VEC2"
    },
    {
      "bufferView": 0,
      "componentType": 5125,
      "count": 13176,
      "type": "SCALAR"
    },
    {
      "bufferView": 2,
      "byteOffset": 57456,
      "componentType": 5126,
      "count": 160,
      "max": [
        0.06546539813280106,
        -0.3981989622116089,
        0.06546502560377121
      ],
      "min": [
        -0.06546521931886673,
        -4.101975440979004,
        -0.06546562910079956
      ],
      "type": "VEC3"
    },
    {
      "bufferView": 2,
      "byteOffset": 59376,
      "componentType": 5126,
      "count": 160,
      "max": [
        0.9951848983764648,
        0.0,
        0.9951848387718201
      ],
      "min": [
        -0.9951848983764648,
        -1.0,
        -0.9951848387718201
      ],
      "type": "VEC3"
    },
    {
      "bufferView": 1,
      "byteOffset": 19152,
      "componentType": 5126,
      "count": 160,
      "max": [
        1.0,
        1.0
      ],
      "min": [
        0.0,
        0.01000000536441803
      ],
      "type": "VEC2"
    },
    {
      "bufferView": 0,
      "byteOffset": 52704,
      "componentType": 5125,
      "count": 282,
      "type": "SCALAR"
    }
  ],
  "asset": {
    "extras": {
      "author": "JasmineLee (https://sketchfab.com/JasmineLee)",
      "license": "CC-BY-4.0 (http://creativecommons.org/licenses/by/4.0/)",
      "source": "https://sketchfab.com/3d-models/spiral-lollipop-4130b2aa4c0a483798d23e05ced9ec6f",
      "title": "Spiral Lollipop"
    },
    "generator": "Sketchfab-12.66.0",
    "version": "2.0"
  },
  "bufferViews": [
    {
      "buffer": 0,
      "byteLength": 53832,
      "name": "floatBufferViews",
      "target": 34963
    },
    {
      "buffer": 0,
      "byteLength": 20432,
      "byteOffset": 53832,
      "byteStride": 8,
      "name": "floatBufferViews",
      "target": 34962
    },
    {
      "buffer": 0,
      "byteLength": 61296,
      "byteOffset": 74264,
      "byteStride": 12,
      "name": "floatBufferViews",
      "target": 34962
    }
  ],
  "buffers": [
    {
      "byteLength": 135560,
      "uri": "scene.bin"
    }
  ],
  "images": [
    {
      "uri": "textures/gradient_baseColor.png"
    }
  ],
  "materials": [
    {
      "doubleSided": true,
      "name": "gradient",
      "pbrMetallicRoughness": {
        "baseColorTexture": {
          "index": 0
        },
        "metallicFactor": 0.0,
        "roughnessFactor": 0.0876289
      }
    },
    {
      "doubleSided": true,
      "name": "stick",
      "pbrMetallicRoughness": {
        "metallicFactor": 0.0,
        "roughnessFactor": 0.5
      }
    }
  ],
  "meshes": [
    {
      "name": "Object_0",
      "primitives": [
        {
          "attributes": {
            "NORMAL": 1,
            "POSITION": 0,
            "TEXCOORD_0": 2
          },
          "indices": 3,
          "material": 0,
          "mode": 4
        }
      ]
    },
    {
      "name": "Object_1",
      "primitives": [
        {
          "attributes": {
            "NORMAL": 5,
            "POSITION": 4,
            "TEXCOORD_0": 6
          },
          "indices": 7,
          "material": 1,
          "mode": 4
        }
      ]
    }
  ],
  "nodes": [
    {
      "children": [
        1
      ],
      "matrix": [
        1.0,
        0.0,
        0.0,
        0.0,
        0.0,
        2.220446049250313e-16,
        -1.0,
        0.0,
        0.0,
        1.0,
        2.220446049250313e-16,
        0.0,
        0.0,
        0.0,
        0.0,
        1.0
      ],
      "name": "Sketchfab_model"
    },
    {
      "children": [
        2
      ],
      "name": "root"
    },
    {
      "children": [
        3
      ],
      "matrix": [
        1.0,
        0.0,
        0.0,
        0.0,
        0.0,
        2.220446049250313e-16,
        1.0,
        0.0,
        0.0,
        -1.0,
        2.220446049250313e-16,
        0.0,
        0.0,
        0.0,
        0.0,
        1.0
      ],
      "name": "GLTF_SceneRootNode"
    },
    {
      "children": [
        4,
        5
      ],
      "name": "Spiral.001_2"
    },
    {
      "mesh": 0,
      "name": "Object_4"
    },
    {
      "mesh": 1,
      "name": "Object_5"
    }
  ],
  "samplers": [
    {
      "magFilter": 9729,
      "minFilter": 9987,
      "wrapS": 10497,
      "wrapT": 10497
    }
  ],
  "scene": 0,
  "scenes": [
    {
      "name": "Sketchfab_Scene",
      "nodes": [
        0
      ]
    }
  ],
  "textures": [
    {
      "sampler": 0,
      "source": 0
    }
  ]
}
